<mxfile host="app.diagrams.net" modified="2021-03-13T14:15:32.955Z" agent="5.0 (Windows NT 10.0; Win64; x64) AppleWebKit/537.36 (KHTML, like Gecko) Chrome/89.0.4389.82 Safari/537.36 Edg/89.0.774.50" etag="kcWVrOm2W1F11KCLe4-8" version="14.4.6" type="github">
  <diagram id="s7mNzpRR08TqiCwHX-21" name="Page-1">
    <mxGraphModel dx="1483" dy="1963" grid="1" gridSize="10" guides="1" tooltips="1" connect="1" arrows="1" fold="1" page="1" pageScale="1" pageWidth="827" pageHeight="1169" math="0" shadow="0">
      <root>
        <mxCell id="0" />
        <mxCell id="1" parent="0" />
        <mxCell id="aoJQfGq2Lagi-UKjZ14I-1" value="APPLICANT" style="whiteSpace=wrap;html=1;align=center;fontStyle=1;strokeWidth=2;" vertex="1" parent="1">
          <mxGeometry x="120" y="130" width="90" height="30" as="geometry" />
        </mxCell>
        <mxCell id="aoJQfGq2Lagi-UKjZ14I-2" value="APPLICATION" style="whiteSpace=wrap;html=1;align=center;fontStyle=1;strokeWidth=2;" vertex="1" parent="1">
          <mxGeometry x="120" y="450" width="90" height="30" as="geometry" />
        </mxCell>
        <mxCell id="aoJQfGq2Lagi-UKjZ14I-3" value="COMMITEE&lt;br&gt;(&lt;span&gt;Professors)&lt;/span&gt;" style="whiteSpace=wrap;html=1;align=center;fontStyle=1;strokeWidth=2;" vertex="1" parent="1">
          <mxGeometry x="528.68" y="370" width="90" height="30" as="geometry" />
        </mxCell>
        <mxCell id="aoJQfGq2Lagi-UKjZ14I-4" value="RECOMMENDATION" style="whiteSpace=wrap;html=1;align=center;fontStyle=1;strokeWidth=2;" vertex="1" parent="1">
          <mxGeometry x="411.18" y="99" width="130" height="30" as="geometry" />
        </mxCell>
        <mxCell id="aoJQfGq2Lagi-UKjZ14I-5" value="Name" style="ellipse;whiteSpace=wrap;html=1;align=center;fontStyle=1" vertex="1" parent="1">
          <mxGeometry x="10" y="60" width="70" height="30" as="geometry" />
        </mxCell>
        <mxCell id="aoJQfGq2Lagi-UKjZ14I-6" value="DOB" style="ellipse;whiteSpace=wrap;html=1;align=center;fontStyle=1" vertex="1" parent="1">
          <mxGeometry x="70" y="30" width="70" height="30" as="geometry" />
        </mxCell>
        <mxCell id="aoJQfGq2Lagi-UKjZ14I-7" value="Sex" style="ellipse;whiteSpace=wrap;html=1;align=center;fontStyle=1" vertex="1" parent="1">
          <mxGeometry x="151" y="29" width="70" height="30" as="geometry" />
        </mxCell>
        <mxCell id="aoJQfGq2Lagi-UKjZ14I-8" value="&lt;u&gt;SSN&lt;/u&gt;" style="ellipse;whiteSpace=wrap;html=1;align=center;fontStyle=1" vertex="1" parent="1">
          <mxGeometry y="110" width="70" height="30" as="geometry" />
        </mxCell>
        <mxCell id="aoJQfGq2Lagi-UKjZ14I-9" value="RID" style="ellipse;whiteSpace=wrap;html=1;align=center;fontStyle=5" vertex="1" parent="1">
          <mxGeometry x="403.68" y="29" width="70" height="30" as="geometry" />
        </mxCell>
        <mxCell id="aoJQfGq2Lagi-UKjZ14I-10" value="Comment" style="ellipse;whiteSpace=wrap;html=1;align=center;fontStyle=1" vertex="1" parent="1">
          <mxGeometry x="571.1800000000001" y="29" width="70" height="30" as="geometry" />
        </mxCell>
        <mxCell id="aoJQfGq2Lagi-UKjZ14I-12" value="Name" style="ellipse;whiteSpace=wrap;html=1;align=center;fontStyle=1" vertex="1" parent="1">
          <mxGeometry x="558.68" y="260" width="70" height="30" as="geometry" />
        </mxCell>
        <mxCell id="aoJQfGq2Lagi-UKjZ14I-13" value="CID" style="ellipse;whiteSpace=wrap;html=1;align=center;fontStyle=5" vertex="1" parent="1">
          <mxGeometry x="660" y="290" width="70" height="30" as="geometry" />
        </mxCell>
        <mxCell id="aoJQfGq2Lagi-UKjZ14I-14" value="ID" style="ellipse;whiteSpace=wrap;html=1;align=center;fontStyle=5" vertex="1" parent="1">
          <mxGeometry x="40" y="410" width="70" height="30" as="geometry" />
        </mxCell>
        <mxCell id="aoJQfGq2Lagi-UKjZ14I-15" value="Content" style="ellipse;whiteSpace=wrap;html=1;align=center;fontStyle=1" vertex="1" parent="1">
          <mxGeometry x="10" y="480" width="70" height="30" as="geometry" />
        </mxCell>
        <mxCell id="aoJQfGq2Lagi-UKjZ14I-16" value="is applied for" style="shape=rhombus;perimeter=rhombusPerimeter;whiteSpace=wrap;html=1;align=center;" vertex="1" parent="1">
          <mxGeometry x="239" y="510" width="100" height="40" as="geometry" />
        </mxCell>
        <mxCell id="aoJQfGq2Lagi-UKjZ14I-17" value="includes" style="shape=rhombus;perimeter=rhombusPerimeter;whiteSpace=wrap;html=1;align=center;" vertex="1" parent="1">
          <mxGeometry x="317" y="250" width="90" height="30" as="geometry" />
        </mxCell>
        <mxCell id="aoJQfGq2Lagi-UKjZ14I-18" value="" style="endArrow=none;html=1;rounded=0;exitX=0;exitY=0.5;exitDx=0;exitDy=0;entryX=1;entryY=0.5;entryDx=0;entryDy=0;" edge="1" parent="1" source="aoJQfGq2Lagi-UKjZ14I-1" target="aoJQfGq2Lagi-UKjZ14I-8">
          <mxGeometry relative="1" as="geometry">
            <mxPoint x="330" y="280" as="sourcePoint" />
            <mxPoint x="490" y="280" as="targetPoint" />
          </mxGeometry>
        </mxCell>
        <mxCell id="aoJQfGq2Lagi-UKjZ14I-19" value="" style="endArrow=none;html=1;rounded=0;entryX=1;entryY=0.5;entryDx=0;entryDy=0;" edge="1" parent="1" target="aoJQfGq2Lagi-UKjZ14I-5">
          <mxGeometry relative="1" as="geometry">
            <mxPoint x="130" y="130" as="sourcePoint" />
            <mxPoint x="80" y="135" as="targetPoint" />
          </mxGeometry>
        </mxCell>
        <mxCell id="aoJQfGq2Lagi-UKjZ14I-20" value="" style="endArrow=none;html=1;rounded=0;entryX=0.5;entryY=1;entryDx=0;entryDy=0;exitX=0.333;exitY=0.033;exitDx=0;exitDy=0;exitPerimeter=0;" edge="1" parent="1" source="aoJQfGq2Lagi-UKjZ14I-1" target="aoJQfGq2Lagi-UKjZ14I-6">
          <mxGeometry relative="1" as="geometry">
            <mxPoint x="151" y="131" as="sourcePoint" />
            <mxPoint x="90" y="85" as="targetPoint" />
          </mxGeometry>
        </mxCell>
        <mxCell id="aoJQfGq2Lagi-UKjZ14I-21" value="" style="endArrow=none;html=1;rounded=0;exitX=0.5;exitY=0;exitDx=0;exitDy=0;entryX=0.34;entryY=1;entryDx=0;entryDy=0;entryPerimeter=0;" edge="1" parent="1" source="aoJQfGq2Lagi-UKjZ14I-1" target="aoJQfGq2Lagi-UKjZ14I-7">
          <mxGeometry relative="1" as="geometry">
            <mxPoint x="152.5" y="140" as="sourcePoint" />
            <mxPoint x="115" y="70" as="targetPoint" />
          </mxGeometry>
        </mxCell>
        <mxCell id="aoJQfGq2Lagi-UKjZ14I-22" value="" style="endArrow=none;html=1;rounded=0;exitX=0.75;exitY=0;exitDx=0;exitDy=0;entryX=0;entryY=1;entryDx=0;entryDy=0;" edge="1" parent="1" source="aoJQfGq2Lagi-UKjZ14I-1" target="aoJQfGq2Lagi-UKjZ14I-58">
          <mxGeometry relative="1" as="geometry">
            <mxPoint x="175" y="140" as="sourcePoint" />
            <mxPoint x="240.25126265847075" y="65.60660171779818" as="targetPoint" />
          </mxGeometry>
        </mxCell>
        <mxCell id="aoJQfGq2Lagi-UKjZ14I-23" value="" style="endArrow=none;html=1;rounded=0;exitX=0.5;exitY=1;exitDx=0;exitDy=0;entryX=0.25;entryY=0;entryDx=0;entryDy=0;" edge="1" parent="1" source="aoJQfGq2Lagi-UKjZ14I-9" target="aoJQfGq2Lagi-UKjZ14I-4">
          <mxGeometry relative="1" as="geometry">
            <mxPoint x="128.68" y="119" as="sourcePoint" />
            <mxPoint x="181.43126265847076" y="54.60660171779841" as="targetPoint" />
          </mxGeometry>
        </mxCell>
        <mxCell id="aoJQfGq2Lagi-UKjZ14I-24" value="" style="endArrow=none;html=1;rounded=0;exitX=0.5;exitY=1;exitDx=0;exitDy=0;entryX=0.25;entryY=0;entryDx=0;entryDy=0;" edge="1" parent="1" source="aoJQfGq2Lagi-UKjZ14I-10" target="aoJQfGq2Lagi-UKjZ14I-4">
          <mxGeometry relative="1" as="geometry">
            <mxPoint x="526.1800000000001" y="89" as="sourcePoint" />
            <mxPoint x="553.6800000000001" y="119" as="targetPoint" />
          </mxGeometry>
        </mxCell>
        <mxCell id="aoJQfGq2Lagi-UKjZ14I-25" value="" style="shape=link;html=1;rounded=0;exitX=0.5;exitY=1;exitDx=0;exitDy=0;entryX=0;entryY=0.5;entryDx=0;entryDy=0;" edge="1" parent="1" source="aoJQfGq2Lagi-UKjZ14I-2" target="aoJQfGq2Lagi-UKjZ14I-16">
          <mxGeometry relative="1" as="geometry">
            <mxPoint x="330" y="280" as="sourcePoint" />
            <mxPoint x="490" y="280" as="targetPoint" />
          </mxGeometry>
        </mxCell>
        <mxCell id="aoJQfGq2Lagi-UKjZ14I-27" value="" style="shape=link;html=1;rounded=0;exitX=0.5;exitY=0;exitDx=0;exitDy=0;entryX=0;entryY=0.5;entryDx=0;entryDy=0;" edge="1" parent="1" source="aoJQfGq2Lagi-UKjZ14I-2" target="aoJQfGq2Lagi-UKjZ14I-17">
          <mxGeometry relative="1" as="geometry">
            <mxPoint x="180" y="175" as="sourcePoint" />
            <mxPoint x="335" y="290" as="targetPoint" />
          </mxGeometry>
        </mxCell>
        <mxCell id="aoJQfGq2Lagi-UKjZ14I-29" value="" style="endArrow=none;html=1;rounded=0;exitX=0.5;exitY=0;exitDx=0;exitDy=0;entryX=0.5;entryY=1;entryDx=0;entryDy=0;" edge="1" parent="1" source="aoJQfGq2Lagi-UKjZ14I-17" target="aoJQfGq2Lagi-UKjZ14I-4">
          <mxGeometry relative="1" as="geometry">
            <mxPoint x="406.18" y="264" as="sourcePoint" />
            <mxPoint x="571.1800000000001" y="429" as="targetPoint" />
          </mxGeometry>
        </mxCell>
        <mxCell id="aoJQfGq2Lagi-UKjZ14I-33" value="" style="endArrow=none;html=1;rounded=0;exitX=0.5;exitY=1;exitDx=0;exitDy=0;entryX=0.75;entryY=0;entryDx=0;entryDy=0;" edge="1" parent="1" source="aoJQfGq2Lagi-UKjZ14I-12" target="aoJQfGq2Lagi-UKjZ14I-3">
          <mxGeometry relative="1" as="geometry">
            <mxPoint x="268.68" y="200" as="sourcePoint" />
            <mxPoint x="548.68" y="370" as="targetPoint" />
          </mxGeometry>
        </mxCell>
        <mxCell id="aoJQfGq2Lagi-UKjZ14I-34" value="" style="endArrow=none;html=1;rounded=0;exitX=0.5;exitY=1;exitDx=0;exitDy=0;entryX=0.75;entryY=0;entryDx=0;entryDy=0;" edge="1" parent="1" source="aoJQfGq2Lagi-UKjZ14I-13" target="aoJQfGq2Lagi-UKjZ14I-3">
          <mxGeometry relative="1" as="geometry">
            <mxPoint x="683.68" y="320" as="sourcePoint" />
            <mxPoint x="588.68" y="370" as="targetPoint" />
          </mxGeometry>
        </mxCell>
        <mxCell id="aoJQfGq2Lagi-UKjZ14I-35" value="" style="endArrow=none;html=1;rounded=0;exitX=1;exitY=1;exitDx=0;exitDy=0;entryX=0;entryY=0.75;entryDx=0;entryDy=0;" edge="1" parent="1" source="aoJQfGq2Lagi-UKjZ14I-14" target="aoJQfGq2Lagi-UKjZ14I-2">
          <mxGeometry relative="1" as="geometry">
            <mxPoint x="330" y="280" as="sourcePoint" />
            <mxPoint x="490" y="280" as="targetPoint" />
          </mxGeometry>
        </mxCell>
        <mxCell id="aoJQfGq2Lagi-UKjZ14I-36" value="" style="endArrow=none;html=1;rounded=0;exitX=1;exitY=0.5;exitDx=0;exitDy=0;entryX=0;entryY=0.75;entryDx=0;entryDy=0;" edge="1" parent="1" source="aoJQfGq2Lagi-UKjZ14I-15" target="aoJQfGq2Lagi-UKjZ14I-2">
          <mxGeometry relative="1" as="geometry">
            <mxPoint x="109.74873734152925" y="445.6066017177982" as="sourcePoint" />
            <mxPoint x="130" y="482.5" as="targetPoint" />
          </mxGeometry>
        </mxCell>
        <mxCell id="aoJQfGq2Lagi-UKjZ14I-37" value="submits" style="shape=rhombus;perimeter=rhombusPerimeter;whiteSpace=wrap;html=1;align=center;" vertex="1" parent="1">
          <mxGeometry x="117" y="290" width="90" height="30" as="geometry" />
        </mxCell>
        <mxCell id="aoJQfGq2Lagi-UKjZ14I-38" value="" style="shape=link;html=1;rounded=0;exitX=0.5;exitY=0;exitDx=0;exitDy=0;entryX=0.404;entryY=1.047;entryDx=0;entryDy=0;entryPerimeter=0;" edge="1" parent="1" source="aoJQfGq2Lagi-UKjZ14I-37" target="aoJQfGq2Lagi-UKjZ14I-1">
          <mxGeometry relative="1" as="geometry">
            <mxPoint x="330" y="280" as="sourcePoint" />
            <mxPoint x="490" y="280" as="targetPoint" />
          </mxGeometry>
        </mxCell>
        <mxCell id="aoJQfGq2Lagi-UKjZ14I-40" value="" style="endArrow=none;html=1;rounded=0;entryX=0;entryY=0.5;entryDx=0;entryDy=0;exitX=1;exitY=0.5;exitDx=0;exitDy=0;" edge="1" parent="1" source="aoJQfGq2Lagi-UKjZ14I-44" target="aoJQfGq2Lagi-UKjZ14I-3">
          <mxGeometry relative="1" as="geometry">
            <mxPoint x="330" y="330" as="sourcePoint" />
            <mxPoint x="490" y="280" as="targetPoint" />
          </mxGeometry>
        </mxCell>
        <mxCell id="aoJQfGq2Lagi-UKjZ14I-41" value="" style="resizable=0;html=1;align=left;verticalAlign=bottom;" connectable="0" vertex="1" parent="1">
          <mxGeometry x="190" y="193" as="geometry">
            <mxPoint x="446" y="247" as="offset" />
          </mxGeometry>
        </mxCell>
        <mxCell id="aoJQfGq2Lagi-UKjZ14I-44" value="is approved by" style="shape=rhombus;perimeter=rhombusPerimeter;whiteSpace=wrap;html=1;align=center;" vertex="1" parent="1">
          <mxGeometry x="339" y="410.49" width="121" height="39.51" as="geometry" />
        </mxCell>
        <mxCell id="aoJQfGq2Lagi-UKjZ14I-55" value="" style="shape=link;html=1;rounded=0;exitX=0.5;exitY=0;exitDx=0;exitDy=0;entryX=0.5;entryY=1;entryDx=0;entryDy=0;" edge="1" parent="1" source="aoJQfGq2Lagi-UKjZ14I-2" target="aoJQfGq2Lagi-UKjZ14I-37">
          <mxGeometry relative="1" as="geometry">
            <mxPoint x="169.32" y="450" as="sourcePoint" />
            <mxPoint x="160" y="321" as="targetPoint" />
          </mxGeometry>
        </mxCell>
        <mxCell id="aoJQfGq2Lagi-UKjZ14I-57" value="SPORT TYPE" style="whiteSpace=wrap;html=1;align=center;fontStyle=1;strokeWidth=2;" vertex="1" parent="1">
          <mxGeometry x="360" y="570" width="90" height="30" as="geometry" />
        </mxCell>
        <mxCell id="aoJQfGq2Lagi-UKjZ14I-58" value="Addr" style="ellipse;whiteSpace=wrap;html=1;align=center;fontStyle=1" vertex="1" parent="1">
          <mxGeometry x="230" y="40" width="70" height="30" as="geometry" />
        </mxCell>
        <mxCell id="aoJQfGq2Lagi-UKjZ14I-59" value="" style="endArrow=none;html=1;rounded=0;exitX=1;exitY=1;exitDx=0;exitDy=0;entryX=0;entryY=0.5;entryDx=0;entryDy=0;" edge="1" source="aoJQfGq2Lagi-UKjZ14I-60" parent="1" target="aoJQfGq2Lagi-UKjZ14I-37">
          <mxGeometry relative="1" as="geometry">
            <mxPoint x="300" y="140" as="sourcePoint" />
            <mxPoint x="90" y="332.5" as="targetPoint" />
          </mxGeometry>
        </mxCell>
        <mxCell id="aoJQfGq2Lagi-UKjZ14I-60" value="Year" style="ellipse;whiteSpace=wrap;html=1;align=center;fontStyle=1" vertex="1" parent="1">
          <mxGeometry x="10" y="270" width="70" height="30" as="geometry" />
        </mxCell>
        <mxCell id="aoJQfGq2Lagi-UKjZ14I-62" value="SOCCER" style="whiteSpace=wrap;html=1;align=center;fontStyle=1;strokeWidth=2;" vertex="1" parent="1">
          <mxGeometry x="280" y="690" width="90" height="30" as="geometry" />
        </mxCell>
        <mxCell id="aoJQfGq2Lagi-UKjZ14I-63" value="VOLLEYBALL" style="whiteSpace=wrap;html=1;align=center;fontStyle=1;strokeWidth=2;" vertex="1" parent="1">
          <mxGeometry x="430" y="690" width="90" height="30" as="geometry" />
        </mxCell>
        <mxCell id="aoJQfGq2Lagi-UKjZ14I-64" value="" style="endArrow=none;html=1;rounded=0;entryX=0.5;entryY=0;entryDx=0;entryDy=0;" edge="1" parent="1" target="aoJQfGq2Lagi-UKjZ14I-62">
          <mxGeometry relative="1" as="geometry">
            <mxPoint x="390" y="650" as="sourcePoint" />
            <mxPoint x="490" y="420" as="targetPoint" />
          </mxGeometry>
        </mxCell>
        <mxCell id="aoJQfGq2Lagi-UKjZ14I-65" value="d" style="ellipse;whiteSpace=wrap;html=1;aspect=fixed;" vertex="1" parent="1">
          <mxGeometry x="385" y="640" width="20" height="20" as="geometry" />
        </mxCell>
        <mxCell id="aoJQfGq2Lagi-UKjZ14I-66" value="" style="endArrow=none;html=1;rounded=0;entryX=0.5;entryY=0;entryDx=0;entryDy=0;exitX=1;exitY=0.5;exitDx=0;exitDy=0;" edge="1" parent="1" source="aoJQfGq2Lagi-UKjZ14I-65" target="aoJQfGq2Lagi-UKjZ14I-63">
          <mxGeometry relative="1" as="geometry">
            <mxPoint x="400" y="660" as="sourcePoint" />
            <mxPoint x="335" y="700" as="targetPoint" />
          </mxGeometry>
        </mxCell>
        <mxCell id="aoJQfGq2Lagi-UKjZ14I-67" value="" style="endArrow=none;html=1;rounded=0;entryX=0.5;entryY=0;entryDx=0;entryDy=0;exitX=0.5;exitY=1;exitDx=0;exitDy=0;" edge="1" parent="1" source="aoJQfGq2Lagi-UKjZ14I-57" target="aoJQfGq2Lagi-UKjZ14I-65">
          <mxGeometry relative="1" as="geometry">
            <mxPoint x="410" y="670" as="sourcePoint" />
            <mxPoint x="345" y="710" as="targetPoint" />
          </mxGeometry>
        </mxCell>
        <mxCell id="aoJQfGq2Lagi-UKjZ14I-68" value="" style="verticalLabelPosition=bottom;verticalAlign=top;html=1;shape=mxgraph.basic.arc;startAngle=0.3;endAngle=0.1;" vertex="1" parent="1">
          <mxGeometry x="352" y="657" width="20" height="20" as="geometry" />
        </mxCell>
        <mxCell id="aoJQfGq2Lagi-UKjZ14I-69" value="" style="verticalLabelPosition=bottom;verticalAlign=top;html=1;shape=mxgraph.basic.arc;startAngle=0.3;endAngle=0.1;rotation=-150;" vertex="1" parent="1">
          <mxGeometry x="429" y="658" width="20" height="20" as="geometry" />
        </mxCell>
        <mxCell id="aoJQfGq2Lagi-UKjZ14I-72" value="" style="endArrow=none;html=1;rounded=0;exitX=0;exitY=1;exitDx=0;exitDy=0;entryX=1;entryY=0.75;entryDx=0;entryDy=0;" edge="1" source="aoJQfGq2Lagi-UKjZ14I-73" parent="1" target="aoJQfGq2Lagi-UKjZ14I-57">
          <mxGeometry relative="1" as="geometry">
            <mxPoint x="780" y="402" as="sourcePoint" />
            <mxPoint x="480" y="584.5" as="targetPoint" />
          </mxGeometry>
        </mxCell>
        <mxCell id="aoJQfGq2Lagi-UKjZ14I-73" value="ID" style="ellipse;whiteSpace=wrap;html=1;align=center;fontStyle=5" vertex="1" parent="1">
          <mxGeometry x="490" y="532" width="70" height="30" as="geometry" />
        </mxCell>
        <mxCell id="aoJQfGq2Lagi-UKjZ14I-74" value="" style="endArrow=none;html=1;rounded=0;exitX=1;exitY=0.5;exitDx=0;exitDy=0;entryX=0.5;entryY=1;entryDx=0;entryDy=0;" edge="1" source="aoJQfGq2Lagi-UKjZ14I-75" parent="1" target="aoJQfGq2Lagi-UKjZ14I-62">
          <mxGeometry relative="1" as="geometry">
            <mxPoint x="319.74873734152925" y="723.1066017177982" as="sourcePoint" />
            <mxPoint x="330" y="750" as="targetPoint" />
          </mxGeometry>
        </mxCell>
        <mxCell id="aoJQfGq2Lagi-UKjZ14I-75" value="Use of feets" style="ellipse;whiteSpace=wrap;html=1;align=center;fontStyle=1" vertex="1" parent="1">
          <mxGeometry x="210" y="757.5" width="80" height="30" as="geometry" />
        </mxCell>
        <mxCell id="aoJQfGq2Lagi-UKjZ14I-76" value="" style="endArrow=none;html=1;rounded=0;entryX=0.5;entryY=1;entryDx=0;entryDy=0;" edge="1" parent="1" source="aoJQfGq2Lagi-UKjZ14I-77" target="aoJQfGq2Lagi-UKjZ14I-63">
          <mxGeometry relative="1" as="geometry">
            <mxPoint x="577.2487373415292" y="723.1066017177982" as="sourcePoint" />
            <mxPoint x="582.5" y="720" as="targetPoint" />
          </mxGeometry>
        </mxCell>
        <mxCell id="aoJQfGq2Lagi-UKjZ14I-77" value="Use of hands" style="ellipse;whiteSpace=wrap;html=1;align=center;fontStyle=1" vertex="1" parent="1">
          <mxGeometry x="467.5" y="757.5" width="80" height="30" as="geometry" />
        </mxCell>
        <mxCell id="aoJQfGq2Lagi-UKjZ14I-78" value="ABC&amp;nbsp; SPORT UNIVEERSITY ERD" style="text;html=1;strokeColor=none;fillColor=none;align=center;verticalAlign=middle;whiteSpace=wrap;rounded=0;fontSize=18;fontStyle=1" vertex="1" parent="1">
          <mxGeometry x="239" y="-20" width="350" height="20" as="geometry" />
        </mxCell>
        <mxCell id="aoJQfGq2Lagi-UKjZ14I-81" value="&lt;font style=&quot;font-size: 12px&quot;&gt;(1, N)&lt;/font&gt;" style="text;html=1;strokeColor=none;fillColor=none;align=center;verticalAlign=middle;whiteSpace=wrap;rounded=0;fontSize=18;" vertex="1" parent="1">
          <mxGeometry x="116" y="403" width="40" height="20" as="geometry" />
        </mxCell>
        <mxCell id="aoJQfGq2Lagi-UKjZ14I-83" value="&lt;font style=&quot;font-size: 12px&quot;&gt;(1, 1)&lt;/font&gt;" style="text;html=1;strokeColor=none;fillColor=none;align=center;verticalAlign=middle;whiteSpace=wrap;rounded=0;fontSize=18;" vertex="1" parent="1">
          <mxGeometry x="108" y="173" width="40" height="20" as="geometry" />
        </mxCell>
        <mxCell id="aoJQfGq2Lagi-UKjZ14I-84" value="&lt;font style=&quot;font-size: 12px&quot;&gt;(2, N)&lt;/font&gt;" style="text;html=1;strokeColor=none;fillColor=none;align=center;verticalAlign=middle;whiteSpace=wrap;rounded=0;fontSize=18;" vertex="1" parent="1">
          <mxGeometry x="410" y="150" width="40" height="20" as="geometry" />
        </mxCell>
        <mxCell id="aoJQfGq2Lagi-UKjZ14I-85" value="&lt;font style=&quot;font-size: 12px&quot;&gt;(1, 1)&lt;/font&gt;" style="text;html=1;strokeColor=none;fillColor=none;align=center;verticalAlign=middle;whiteSpace=wrap;rounded=0;fontSize=18;" vertex="1" parent="1">
          <mxGeometry x="166" y="390.49" width="40" height="20" as="geometry" />
        </mxCell>
        <mxCell id="aoJQfGq2Lagi-UKjZ14I-86" value="&lt;font style=&quot;font-size: 12px&quot;&gt;(1, 1)&lt;/font&gt;" style="text;html=1;strokeColor=none;fillColor=none;align=center;verticalAlign=middle;whiteSpace=wrap;rounded=0;fontSize=18;" vertex="1" parent="1">
          <mxGeometry x="487.5" y="370" width="40" height="20" as="geometry" />
        </mxCell>
        <mxCell id="aoJQfGq2Lagi-UKjZ14I-88" value="&lt;font style=&quot;font-size: 12px&quot;&gt;(1, N)&lt;/font&gt;" style="text;html=1;strokeColor=none;fillColor=none;align=center;verticalAlign=middle;whiteSpace=wrap;rounded=0;fontSize=18;" vertex="1" parent="1">
          <mxGeometry x="221" y="430" width="40" height="20" as="geometry" />
        </mxCell>
        <mxCell id="aoJQfGq2Lagi-UKjZ14I-89" value="&lt;font style=&quot;font-size: 12px&quot;&gt;(1, 1)&lt;/font&gt;" style="text;html=1;strokeColor=none;fillColor=none;align=center;verticalAlign=middle;whiteSpace=wrap;rounded=0;fontSize=18;" vertex="1" parent="1">
          <mxGeometry x="409" y="542" width="40" height="20" as="geometry" />
        </mxCell>
        <mxCell id="aoJQfGq2Lagi-UKjZ14I-90" value="&lt;font style=&quot;font-size: 12px&quot;&gt;(1, N)&lt;/font&gt;" style="text;html=1;strokeColor=none;fillColor=none;align=center;verticalAlign=middle;whiteSpace=wrap;rounded=0;fontSize=18;" vertex="1" parent="1">
          <mxGeometry x="140" y="490" width="40" height="20" as="geometry" />
        </mxCell>
        <mxCell id="aoJQfGq2Lagi-UKjZ14I-91" value="" style="shape=link;html=1;rounded=0;exitX=1;exitY=0.5;exitDx=0;exitDy=0;entryX=0;entryY=0.5;entryDx=0;entryDy=0;" edge="1" parent="1" source="aoJQfGq2Lagi-UKjZ14I-2" target="aoJQfGq2Lagi-UKjZ14I-44">
          <mxGeometry relative="1" as="geometry">
            <mxPoint x="175" y="460" as="sourcePoint" />
            <mxPoint x="327.0000000000002" y="275" as="targetPoint" />
          </mxGeometry>
        </mxCell>
        <mxCell id="aoJQfGq2Lagi-UKjZ14I-92" value="" style="endArrow=none;html=1;rounded=0;entryX=0.5;entryY=0;entryDx=0;entryDy=0;exitX=1;exitY=0.5;exitDx=0;exitDy=0;" edge="1" parent="1" source="aoJQfGq2Lagi-UKjZ14I-16" target="aoJQfGq2Lagi-UKjZ14I-57">
          <mxGeometry relative="1" as="geometry">
            <mxPoint x="470" y="440.2449999999999" as="sourcePoint" />
            <mxPoint x="538.6799999999996" y="395" as="targetPoint" />
          </mxGeometry>
        </mxCell>
      </root>
    </mxGraphModel>
  </diagram>
</mxfile>
